<svg xmlns="http://www.w3.org/2000/svg" viewBox="0 0 100 100" role="img" aria-label="Ivory n">
  <defs>
    <linearGradient id="g" x1="0" y1="0" x2="0" y2="1">
      <stop offset="0%" stop-color="#fff8ea"/>
      <stop offset="100%" stop-color="#d7c2a2"/>
    </linearGradient>
    <radialGradient id="h" cx="35%" cy="24%" r="44%">
      <stop offset="0%" stop-color="rgba(255,255,255,0.8)"/>
      <stop offset="100%" stop-color="rgba(255,255,255,0)"/>
    </radialGradient>
  </defs>
  <ellipse cx="50" cy="84" rx="24" ry="6" fill="rgba(0,0,0,0.28)"/>
  <g fill="url(#g)" stroke="#7f6044" stroke-width="2" stroke-linejoin="round" stroke-linecap="round">
    <path d="M33 67c4-2 7-9 9-16 2-9 4-18 12-26 4-4 9-7 15-8 1 7-2 12-4 15l6 4c2 2 3 4 3 6v5c0 5-4 9-9 9H54c-4 0-5 3-4 6l1 5H33z"/><circle cx="61" cy="29" r="2.3"/><ellipse cx="50" cy="69" rx="24" ry="8"/><rect x="24" y="72" width="52" height="8" rx="4"/>
  </g>
  <ellipse cx="45" cy="36" rx="22" ry="14" fill="url(#h)"/>
</svg>
